<svg xmlns="http://www.w3.org/2000/svg" width="13.482" height="17" viewBox="0 0 13.482 17">
  <g id="flag" transform="translate(-52.978)">
    <path id="Path_401" data-name="Path 401" d="M100.584,35.66a.575.575,0,0,1-.352.558,23.111,23.111,0,0,1-11.612,0,.575.575,0,0,1-.352-.558V26.483a18.058,18.058,0,0,0,6.159.861,19.777,19.777,0,0,0,5.771-.717.3.3,0,0,1,.265.039.29.29,0,0,1,.123.236v8.76Z" transform="translate(-34.126 -25.61)" fill="#c03a2b"/>
    <path id="Path_402" data-name="Path 402" d="M115.062,214.192a.291.291,0,0,1-.291-.291v-1.746a.291.291,0,0,1,.4-.271,4.879,4.879,0,0,0,1.6.271.291.291,0,0,1,0,.582,5.621,5.621,0,0,1-1.42-.186v1.35A.291.291,0,0,1,115.062,214.192Z" transform="translate(-59.738 -204.822)" fill="#e64c3c"/>
    <path id="Path_403" data-name="Path 403" d="M53.56,0a.584.584,0,0,1,.582.586V16.707a.292.292,0,0,1-.291.293h-.582a.292.292,0,0,1-.291-.293V.586A.584.584,0,0,1,53.56,0Z" transform="translate(0)" fill="#464f5d"/>
    <g id="Group_2953" data-name="Group 2953" transform="translate(54.142 0.873)">
      <path id="Path_404" data-name="Path 404" d="M279.776,176.552v4.231a.572.572,0,0,1-.346.556,19.138,19.138,0,0,1-5.762.742v-4.668A17.768,17.768,0,0,0,279.776,176.552Z" transform="translate(-267.461 -171.605)" fill="#f0c419"/>
      <path id="Path_405" data-name="Path 405" d="M94.4,27.344v4.947h0a17.78,17.78,0,0,1-6.108-.861V26.483a17.78,17.78,0,0,0,6.108.861h0Z" transform="translate(-88.289 -26.483)" fill="#f0c419"/>
    </g>
    <path id="Path_406" data-name="Path 406" d="M115.062,64.123a.291.291,0,0,1-.291-.291V62.086a.291.291,0,0,1,.4-.271,4.88,4.88,0,0,0,1.6.271.291.291,0,1,1,0,.582,5.62,5.62,0,0,1-1.42-.186v1.35A.291.291,0,0,1,115.062,64.123Z" transform="translate(-59.738 -59.758)" fill="#f3d55b"/>
    <rect id="Rectangle_365" data-name="Rectangle 365" width="1.164" height="12.223" transform="translate(52.978 0.873)" fill="#e6e7e8"/>
  </g>
</svg>
