<svg xmlns="http://www.w3.org/2000/svg" width="22.144" height="20" viewBox="0 0 22.144 20">
  <g id="Group_3124" data-name="Group 3124" transform="translate(-364 -685)">
    <path id="FontAwsome_font_" data-name="FontAwsome (font)" d="M19.286,49.143H18.241L12.405,32.968A1.429,1.429,0,0,0,11.053,32H8.947a1.429,1.429,0,0,0-1.353.969L1.759,49.143H.714A.714.714,0,0,0,0,49.857v1.429A.714.714,0,0,0,.714,52H6.429a.714.714,0,0,0,.714-.714V49.857a.714.714,0,0,0-.714-.714H5.554l1.04-2.857h6.811l1.04,2.857h-.874a.714.714,0,0,0-.714.714v1.429a.714.714,0,0,0,.714.714h5.714A.714.714,0,0,0,20,51.286V49.857A.714.714,0,0,0,19.286,49.143ZM7.9,42.714,10,36.933l2.1,5.781Z" transform="translate(364 653)" fill="#da3642"/>
    <path id="Path_357" data-name="Path 357" d="M2.144-3.008H-2.144v-1.6H2.144Z" transform="translate(384 690)" fill="#da3642"/>
  </g>
</svg>
