<svg xmlns="http://www.w3.org/2000/svg" width="23.472" height="20.264" viewBox="0 0 23.472 20.264">
  <g id="Group_3123" data-name="Group 3123" transform="translate(-364 -684.736)">
    <path id="FontAwsome_font_" data-name="FontAwsome (font)" d="M19.286,49.143H18.241L12.405,32.968A1.429,1.429,0,0,0,11.053,32H8.947a1.429,1.429,0,0,0-1.353.969L1.759,49.143H.714A.714.714,0,0,0,0,49.857v1.429A.714.714,0,0,0,.714,52H6.429a.714.714,0,0,0,.714-.714V49.857a.714.714,0,0,0-.714-.714H5.554l1.04-2.857h6.811l1.04,2.857h-.874a.714.714,0,0,0-.714.714v1.429a.714.714,0,0,0,.714.714h5.714A.714.714,0,0,0,20,51.286V49.857A.714.714,0,0,0,19.286,49.143ZM7.9,42.714,10,36.933l2.1,5.781Z" transform="translate(364 653)" fill="#fff"/>
    <path id="Path_358" data-name="Path 358" d="M-.944-2.816H-3.472v-1.6H-.944V-7.264H.928v2.848H3.472v1.6H.928V0H-.944Z" transform="translate(384 692)" fill="#fff"/>
  </g>
</svg>
