<svg xmlns="http://www.w3.org/2000/svg" width="28.424" height="24" viewBox="0 0 28.424 24">
  <g id="menu" transform="translate(-7.667 -13)">
    <path id="Path_341" data-name="Path 341" d="M8.555,15.4H35.2c.491,0,.888-.537.888-1.2s-.4-1.2-.888-1.2H8.555c-.491,0-.888.537-.888,1.2S8.065,15.4,8.555,15.4Z" transform="translate(0)" fill="#fff"/>
    <path id="Path_342" data-name="Path 342" d="M18.555,37.4H33.2c.491,0,.888-.537.888-1.2s-.4-1.2-.888-1.2H18.555c-.491,0-.888.537-.888,1.2S18.065,37.4,18.555,37.4Z" transform="translate(2 -0.4)" fill="#fff"/>
    <path id="Path_343" data-name="Path 343" d="M13.555,26.4H34.2c.491,0,.888-.537.888-1.2s-.4-1.2-.888-1.2H13.555c-.491,0-.888.537-.888,1.2S13.065,26.4,13.555,26.4Z" transform="translate(1 -0.2)" fill="#fff"/>
  </g>
</svg>
