<svg xmlns="http://www.w3.org/2000/svg" width="17.437" height="14" viewBox="0 0 17.437 14">
  <path id="FontAwsome_angle-double-left_" data-name="FontAwsome (angle-double-left)" d="M33.368,102.206l5.948-5.948a1.045,1.045,0,0,1,1.483,0l.988.988a1.045,1.045,0,0,1,0,1.483l-4.212,4.221,4.216,4.216a1.045,1.045,0,0,1,0,1.483l-.988.993a1.045,1.045,0,0,1-1.483,0l-5.948-5.948A1.047,1.047,0,0,1,33.368,102.206Zm-8.4,1.487,5.948,5.948a1.045,1.045,0,0,0,1.483,0l.988-.988a1.045,1.045,0,0,0,0-1.483l-4.212-4.221,4.216-4.216a1.045,1.045,0,0,0,0-1.483l-.988-.993a1.045,1.045,0,0,0-1.483,0l-5.948,5.948A1.047,1.047,0,0,0,24.97,103.694Z" transform="translate(-24.662 -95.95)" fill="#4c80db"/>
</svg>
