<svg xmlns="http://www.w3.org/2000/svg" width="24.693" height="17" viewBox="0 0 24.693 17">
  <g id="ice-court" transform="translate(0 -0.5)">
    <path id="Path_378" data-name="Path 378" d="M0,119.668H3.524v5.505H0Zm0,0" transform="translate(0 -113.421)" fill="#da3642"/>
    <path id="Path_379" data-name="Path 379" d="M224.538,143.6a1.679,1.679,0,1,0-1.679,1.679A1.681,1.681,0,0,0,224.538,143.6Zm0,0" transform="translate(-210.512 -134.601)" fill="#da3642"/>
    <path id="Path_380" data-name="Path 380" d="M438.93,119.668h3.524v5.505H438.93Zm0,0" transform="translate(-417.761 -113.421)" fill="#da3642"/>
    <path id="Path_381" data-name="Path 381" d="M277.652,13.2V4.8h4.971V.5H271V5.959a3.125,3.125,0,0,1,0,6.082V17.5h11.623V13.2Zm0,0" transform="translate(-257.93)" fill="#da3642"/>
    <path id="Path_382" data-name="Path 382" d="M11.623,12.041a3.125,3.125,0,0,1,0-6.082V.5H0V4.8H4.971v8.4H0v4.3H11.623Zm0,0" transform="translate(0 0)" fill="#da3642"/>
  </g>
</svg>
