<svg xmlns="http://www.w3.org/2000/svg" xmlns:xlink="http://www.w3.org/1999/xlink" width="392" height="334" viewBox="0 0 392 334">
  <defs>
    <clipPath id="clip-path">
      <rect id="Rectangle_44" data-name="Rectangle 44" width="392" height="334" transform="translate(0 386)" fill="#111514"/>
    </clipPath>
    <linearGradient id="linear-gradient" x1="0.495" y1="0.328" x2="0.5" y2="1" gradientUnits="objectBoundingBox">
      <stop offset="0" stop-color="#fff" stop-opacity="0"/>
      <stop offset="1" stop-color="gray"/>
    </linearGradient>
  </defs>
  <g id="Mask_Group_1" data-name="Mask Group 1" transform="translate(392 720) rotate(180)" clip-path="url(#clip-path)">
    <path id="football" d="M236.111,0C105.712,0,0,111.645,0,249.362S105.712,498.725,236.111,498.725,472.222,387.08,472.222,249.362C472.076,111.71,366.448.154,236.111,0Zm8.428,71.891L326.62,37.238a217.343,217.343,0,0,1,26.97,15.354l.215.142A222.69,222.69,0,0,1,378.1,71.55l.661.609q5.171,4.651,10.057,9.623c.411.426.842.832,1.253,1.266Q395.2,88.332,400,93.941c.265.317.519.649.784.966,2.809,3.324,5.511,6.766,8.132,10.264.63.832,1.26,1.664,1.871,2.5,2.844,3.888,5.6,7.845,8.193,11.928l-16.363,73.461L322.109,221.4l-77.551-65.535ZM61.43,107.716q.917-1.248,1.864-2.492,3.885-5.205,8.036-10.159c.3-.349.576-.706.872-1.055q4.773-5.619,9.888-10.889c.392-.406.784-.832,1.2-1.205q4.848-4.937,9.972-9.566l.788-.7a223.613,223.613,0,0,1,24.065-18.7l.307-.207A217.624,217.624,0,0,1,145.225,37.4l82.458,34.486v83.953l-77.555,65.523L69.623,193.073,53.26,119.612c2.621-4.075,5.342-8.024,8.17-11.9Zm-9.484,269.2q-3.47-5.589-6.637-11.388l-.511-.933q-3.147-5.771-5.957-11.734l-.065-.126a238.783,238.783,0,0,1-10.364-25.768v-.081c-1.4-4.156-2.675-8.414-3.854-12.7l-.427-1.579q-1.62-6.033-2.936-12.2c-.077-.4-.173-.783-.25-1.181a243.409,243.409,0,0,1-4.158-28.155L64.834,210.18l79.949,28.143,23.2,98.016-38.126,53.574Zm236.577,98.479c-3.935,1.031-7.974,1.92-12.013,2.719-.565.118-1.141.215-1.706.325-3.439.649-6.917,1.205-10.4,1.66-.93.126-1.852.26-2.778.377-3.236.4-6.5.7-9.776.946-1.03.073-2.048.183-3.078.252-4.185.272-8.4.43-12.655.43q-5.839,0-11.61-.325c-.465,0-.911-.081-1.376-.118q-5.136-.31-10.234-.828l-.392-.077a213.26,213.26,0,0,1-22.193-3.738l-46.554-76.98,37.526-52.847H290.943l38.141,53.2ZM451.336,299.235c-.081.4-.173.783-.254,1.181q-1.32,6.161-2.936,12.2l-.423,1.579c-1.184,4.282-2.456,8.523-3.858,12.7v.081A238,238,0,0,1,433.5,352.74l-.065.126q-2.825,5.966-5.957,11.734l-.511.933q-3.147,5.82-6.625,11.372l-77.651,12.931L304.3,336.307l23.192-97.992,79.949-28.143,48.048,60.892a242.848,242.848,0,0,1-4.154,28.171Zm0,0" transform="translate(-39.816 463)" opacity="0.31" fill="url(#linear-gradient)"/>
  </g>
</svg>
