<svg xmlns="http://www.w3.org/2000/svg" xmlns:xlink="http://www.w3.org/1999/xlink" width="414" height="334" viewBox="0 0 414 334">
  <defs>
    <clipPath id="clip-path">
      <path id="Rectangle_44" data-name="Rectangle 44" d="M30,0H384a30,30,0,0,1,30,30V334a0,0,0,0,1,0,0H0a0,0,0,0,1,0,0V30A30,30,0,0,1,30,0Z" transform="translate(0 386)" fill="#111514"/>
    </clipPath>
    <linearGradient id="linear-gradient" x1="0.5" y1="0.144" x2="0.5" y2="1" gradientUnits="objectBoundingBox">
      <stop offset="0" stop-color="#fff" stop-opacity="0"/>
      <stop offset="1" stop-color="gray"/>
    </linearGradient>
  </defs>
  <g id="Mask_Group_1" data-name="Mask Group 1" transform="translate(0 -386)" clip-path="url(#clip-path)">
    <path id="football" d="M249.362,0C111.645,0,0,111.645,0,249.362S111.645,498.725,249.362,498.725,498.725,387.08,498.725,249.362C498.57,111.71,387.014.154,249.362,0Zm8.9,71.891,86.688-34.653a233.261,233.261,0,0,1,28.484,15.354l.227.142A234.07,234.07,0,0,1,399.321,71.55l.7.609q5.461,4.651,10.621,9.623c.434.426.889.832,1.323,1.266q5.412,5.284,10.483,10.893c.28.317.548.649.828.966,2.967,3.324,5.82,6.766,8.588,10.264.666.832,1.331,1.664,1.977,2.5,3,3.888,5.909,7.845,8.653,11.928l-17.282,73.461L340.186,221.4l-81.9-65.535ZM64.877,107.716q.968-1.248,1.968-2.492,4.1-5.205,8.487-10.159c.317-.349.609-.706.921-1.055Q81.294,88.391,86.7,83.121c.414-.406.828-.832,1.262-1.205q5.12-4.937,10.532-9.566l.832-.7a234.977,234.977,0,0,1,25.415-18.7l.325-.207A233.492,233.492,0,0,1,153.376,37.4l87.086,34.486v83.953l-81.907,65.523L73.53,193.073,56.249,119.612c2.768-4.075,5.642-8.024,8.629-11.9Zm-10.017,269.2q-3.665-5.589-7.009-11.388l-.54-.933q-3.324-5.771-6.291-11.734l-.069-.126a231.581,231.581,0,0,1-10.946-25.768v-.081c-1.477-4.156-2.825-8.414-4.071-12.7l-.451-1.579q-1.711-6.033-3.1-12.2c-.081-.4-.183-.783-.264-1.181a231.348,231.348,0,0,1-4.391-28.155L68.473,210.18l84.436,28.143,24.506,98.016-40.266,53.574Zm249.854,98.479c-4.156,1.031-8.422,1.92-12.687,2.719-.6.118-1.205.215-1.8.325-3.632.649-7.306,1.205-10.987,1.66-.982.126-1.956.26-2.934.377-3.417.4-6.867.7-10.325.946-1.088.073-2.163.183-3.251.252-4.42.272-8.876.43-13.365.43q-6.167,0-12.261-.325c-.491,0-.962-.081-1.453-.118q-5.424-.31-10.808-.828l-.414-.077a236.836,236.836,0,0,1-23.439-3.738l-49.166-76.98,39.633-52.847H307.272l40.282,53.2ZM476.666,299.235c-.085.4-.183.783-.268,1.181q-1.394,6.161-3.1,12.2l-.446,1.579c-1.25,4.282-2.594,8.523-4.075,12.7v.081A230.823,230.823,0,0,1,457.83,352.74l-.069.126q-2.983,5.966-6.291,11.734l-.54.933q-3.324,5.82-7,11.372l-82.009,12.931-40.546-53.529,24.494-97.992,84.436-28.143,50.745,60.892a230.814,230.814,0,0,1-4.387,28.171Zm0,0" transform="translate(-42.051 344)" opacity="0.1" fill="url(#linear-gradient)"/>
  </g>
</svg>
