<svg xmlns="http://www.w3.org/2000/svg" width="37.505" height="30" viewBox="0 0 37.505 30">
  <g id="Group_3123" data-name="Group 3123" transform="translate(-320 -1436)">
    <path id="FontAwsome_tshirt_" data-name="FontAwsome (tshirt)" d="M36.928,5.654,25.519,0c-1.178,1.629-3.785,2.766-6.826,2.766S13.045,1.629,11.867,0L.459,5.654a.944.944,0,0,0-.422,1.26l3.352,6.709a.944.944,0,0,0,1.26.422l3.316-1.623a.936.936,0,0,1,1.348.844V28.125A1.873,1.873,0,0,0,11.187,30h15a1.873,1.873,0,0,0,1.875-1.875V13.26a.938.938,0,0,1,1.348-.844l3.316,1.623a.934.934,0,0,0,1.26-.422l3.357-6.7A.935.935,0,0,0,36.928,5.654Z" transform="translate(320.06 1436)" fill="#da3642"/>
    <text id="_9" data-name="9" transform="translate(338.467 1456.031)" fill="#fff" font-size="14" font-family="SegoeUI, Segoe UI"><tspan x="-3.773" y="0">9</tspan></text>
  </g>
</svg>
