<svg xmlns="http://www.w3.org/2000/svg" width="90" height="90" viewBox="0 0 90 90">
  <g id="Group_3089" data-name="Group 3089" transform="translate(-162 -104)">
    <circle id="Ellipse_118" data-name="Ellipse 118" cx="45" cy="45" r="45" transform="translate(162 104)" fill="#da3642"/>
    <path id="FontAwsome_headset_" data-name="FontAwsome (headset)" d="M16.875,18.281a2.813,2.813,0,0,0-2.812-2.812H12.656a5.625,5.625,0,0,0-5.625,5.625v4.219a5.625,5.625,0,0,0,5.625,5.625h1.406a2.813,2.813,0,0,0,2.813-2.812ZM32.344,30.938a5.625,5.625,0,0,0,5.625-5.625V21.094a5.625,5.625,0,0,0-5.625-5.625H30.938a2.813,2.813,0,0,0-2.812,2.813v9.844a2.813,2.813,0,0,0,2.813,2.813ZM22.5,0C9.947,0,.4,10.444,0,22.5v1.406a1.406,1.406,0,0,0,1.406,1.406H2.813a1.406,1.406,0,0,0,1.406-1.406V22.5a18.281,18.281,0,0,1,36.563,0h-.011c.007.214.011,14.565.011,14.565a3.716,3.716,0,0,1-3.716,3.716h-8.94a4.219,4.219,0,0,0-4.219-4.219H21.094a4.219,4.219,0,0,0,0,8.438H37.065A7.935,7.935,0,0,0,45,37.065V22.5C44.6,10.444,35.053,0,22.5,0Z" transform="translate(185 127)" fill="#fff"/>
  </g>
</svg>
