<svg id="ins" xmlns="http://www.w3.org/2000/svg" width="35" height="35" viewBox="0 0 35 35">
  <path id="Path_912" data-name="Path 912" d="M37.582,23.88H26.862a3.107,3.107,0,0,0-3.1,3.1V37.7a3.107,3.107,0,0,0,3.1,3.1h10.72a3.107,3.107,0,0,0,3.1-3.1V26.983A3.107,3.107,0,0,0,37.582,23.88Zm-5.36,14.035a5.572,5.572,0,1,1,5.572-5.572A5.578,5.578,0,0,1,32.222,37.915Zm5.751-9.992A1.318,1.318,0,1,1,39.292,26.6,1.32,1.32,0,0,1,37.973,27.923Z" transform="translate(-14.722 -14.797)" fill="#6a453b"/>
  <path id="Path_913" data-name="Path 913" d="M40.067,36.971a3.217,3.217,0,1,0,3.217,3.217A3.222,3.222,0,0,0,40.067,36.971Z" transform="translate(-22.567 -22.641)" fill="#6a453b"/>
  <path id="Path_914" data-name="Path 914" d="M17.5,0A17.5,17.5,0,1,0,35,17.5,17.5,17.5,0,0,0,17.5,0ZM28.027,22.763a5.317,5.317,0,0,1-5.311,5.311H12.284a5.317,5.317,0,0,1-5.311-5.311V12.331A5.317,5.317,0,0,1,12.284,7.02H22.716a5.317,5.317,0,0,1,5.311,5.311Z" transform="translate(0 0)" fill="#6a453b"/>
</svg>
