<svg xmlns="http://www.w3.org/2000/svg" width="35" height="35" viewBox="0 0 35 35">
  <path id="snap" d="M17.5,0A17.5,17.5,0,1,0,35,17.5,17.5,17.5,0,0,0,17.5,0ZM27.792,21.952c-.122.288-.678.7-2.618,1-.159.024-.22.231-.315.664q-.049.24-.117.476a.26.26,0,0,1-.278.208H24.44a2.449,2.449,0,0,1-.434-.055,5.77,5.77,0,0,0-1.166-.124,5.178,5.178,0,0,0-.841.071A4.045,4.045,0,0,0,20.4,25,4.516,4.516,0,0,1,17.629,26.1c-.054,0-.1,0-.157,0-.033,0-.068,0-.1,0A4.515,4.515,0,0,1,14.6,25a4.031,4.031,0,0,0-1.6-.817,5.176,5.176,0,0,0-.841-.071,5.822,5.822,0,0,0-1.166.131,2.538,2.538,0,0,1-.434.062.273.273,0,0,1-.3-.215q-.067-.237-.117-.479c-.086-.4-.149-.641-.315-.667-1.94-.3-2.495-.708-2.618-1a.37.37,0,0,1-.03-.124A.218.218,0,0,1,7.36,21.6c2.982-.491,4.319-3.539,4.375-3.668l0-.011a1.131,1.131,0,0,0,.106-.954c-.2-.482-.872-.695-1.314-.835q-.147-.044-.291-.1c-.882-.349-.955-.707-.92-.888a.833.833,0,0,1,.81-.527.574.574,0,0,1,.242.048,2.567,2.567,0,0,0,1.062.28.873.873,0,0,0,.634-.2q-.016-.3-.038-.63a10.437,10.437,0,0,1,.247-4.162,5.394,5.394,0,0,1,5.008-3.23l.366,0H17.7A5.4,5.4,0,0,1,22.719,9.95a10.445,10.445,0,0,1,.247,4.163l0,.061-.034.57a.85.85,0,0,0,.579.2,2.661,2.661,0,0,0,1-.278.758.758,0,0,1,.311-.061.952.952,0,0,1,.358.068l.007,0a.657.657,0,0,1,.5.536c0,.207-.154.517-.928.823q-.144.054-.291.1c-.442.14-1.109.352-1.314.835a1.139,1.139,0,0,0,.106.954l.005.011c.056.129,1.391,3.176,4.375,3.667a.219.219,0,0,1,.183.228.343.343,0,0,1-.028.125Z" fill="#ffe400"/>
</svg>
