<svg id="tw" xmlns="http://www.w3.org/2000/svg" width="35" height="35" viewBox="0 0 35 35">
  <circle id="Ellipse_104" data-name="Ellipse 104" cx="17.5" cy="17.5" r="17.5" transform="translate(0)" fill="#55acee"/>
  <g id="Group_190" data-name="Group 190" transform="translate(7.529 10.352)">
    <path id="Path_916" data-name="Path 916" d="M46.055,36.044a8.576,8.576,0,0,1-2.469.676,4.31,4.31,0,0,0,1.89-2.378,8.6,8.6,0,0,1-2.73,1.043,4.3,4.3,0,0,0-7.325,3.921,12.2,12.2,0,0,1-8.86-4.492,4.3,4.3,0,0,0,1.33,5.739,4.268,4.268,0,0,1-1.947-.538c0,.018,0,.037,0,.054a4.3,4.3,0,0,0,3.448,4.215,4.316,4.316,0,0,1-1.941.074,4.3,4.3,0,0,0,4.015,2.985,8.677,8.677,0,0,1-6.364,1.78,12.224,12.224,0,0,0,18.819-10.3c0-.186,0-.372-.013-.556a8.717,8.717,0,0,0,2.145-2.225Z" transform="translate(-25.103 -34.028)" fill="#f1f2f2"/>
  </g>
</svg>
