<svg id="whats" xmlns="http://www.w3.org/2000/svg" width="35" height="35" viewBox="0 0 35 35">
  <path id="Path_6178" data-name="Path 6178" d="M17.5,0A17.5,17.5,0,1,0,35,17.5,17.5,17.5,0,0,0,17.5,0Zm.009,26.254a10.058,10.058,0,0,1-4.656-1.145L7.4,27.592l1.527-6.11a10.1,10.1,0,1,1,8.585,4.772Z" fill="#4caf50"/>
  <path id="Path_6179" data-name="Path 6179" d="M16.857,7.371a8.237,8.237,0,0,0-6.243,13.621L9.486,23.852,12,22.257a8.09,8.09,0,0,0,4.862,1.6,8.241,8.241,0,0,0,0-16.481ZM22.07,19.044A3.03,3.03,0,0,1,20.261,20.5c-1.633.369-3.948-.934-5.446-2.314-1.5-1.361-2.994-3.561-2.78-5.215a3.156,3.156,0,0,1,1.283-1.945,3.439,3.439,0,0,1,.661-.039c.272.019.506.039.584.194l.875,2.276c.058.175-.078.369-.253.584-.252.292-.291.311-.525.623a.415.415,0,0,0,0,.427,5.842,5.842,0,0,0,1.361,1.77,6.235,6.235,0,0,0,1.886,1.225,1.161,1.161,0,0,0,.447.058c.155-.019.252-.136.388-.311.252-.311.35-.428.564-.72.175-.214.349-.292.526-.2l1.983.915c.156.078.214.272.233.545a1.9,1.9,0,0,1,.021.662Z" transform="translate(0.652 0.558)" fill="#4caf50"/>
</svg>
