<svg xmlns="http://www.w3.org/2000/svg" width="14.875" height="17" viewBox="0 0 14.875 17">
  <path id="FontAwsome_calendar-check_" data-name="FontAwsome (calendar-check)" d="M14.477,5.313H.4a.4.4,0,0,1-.4-.4v-1.2A1.594,1.594,0,0,1,1.594,2.125H3.188V.4a.4.4,0,0,1,.4-.4H4.914a.4.4,0,0,1,.4.4V2.125h4.25V.4a.4.4,0,0,1,.4-.4h1.328a.4.4,0,0,1,.4.4V2.125h1.594a1.594,1.594,0,0,1,1.594,1.594v1.2A.4.4,0,0,1,14.477,5.313ZM.4,6.375H14.477a.4.4,0,0,1,.4.4v8.633A1.594,1.594,0,0,1,13.281,17H1.594A1.594,1.594,0,0,1,0,15.406V6.773A.4.4,0,0,1,.4,6.375ZM11.465,9.561l-.935-.943a.4.4,0,0,0-.563,0L6.445,12.108,4.919,10.569a.4.4,0,0,0-.563,0l-.943.935a.4.4,0,0,0,0,.563L6.153,14.83a.4.4,0,0,0,.563,0l4.746-4.708a.4.4,0,0,0,0-.563Z" fill="#fff"/>
</svg>
