<svg xmlns="http://www.w3.org/2000/svg" width="22.667" height="17" viewBox="0 0 22.667 17">
  <path id="FontAwsome_chart-line_" data-name="FontAwsome (chart-line)" d="M.708,78.167H19.833V64.708A.708.708,0,0,1,20.542,64h1.417a.708.708,0,0,1,.708.708V79.583A1.417,1.417,0,0,1,21.25,81H.708A.708.708,0,0,1,0,80.292V78.875A.708.708,0,0,1,.708,78.167Zm1.417-12.75H7.352A1.062,1.062,0,0,1,8.1,67.23L6.669,68.665l3.248,3.249,3.248-3.248a1.416,1.416,0,0,1,2,0l3.041,3.041a.708.708,0,0,1,0,1l-1,1a.708.708,0,0,1-1,0l-2.039-2.04-3.248,3.248a1.416,1.416,0,0,1-2,0l-4.25-4.25L3.231,72.1a1.062,1.062,0,0,1-1.814-.751V66.125A.707.707,0,0,1,2.125,65.417Z" transform="translate(0 -64)" fill="#fff"/>
</svg>
